<?xml version="1.0" standalone="no"?>
<!DOCTYPE svg PUBLIC "-//W3C//DTD SVG 20010904//EN"
 "http://www.w3.org/TR/2001/REC-SVG-20010904/DTD/svg10.dtd">
<svg version="1.0" xmlns="http://www.w3.org/2000/svg"
 width="321.000000pt" height="321.000000pt" viewBox="0 0 321.000000 321.000000"
 preserveAspectRatio="xMidYMid meet">
<metadata>
Created by potrace 1.11, written by Peter Selinger 2001-2013
</metadata>
<g transform="translate(0.000000,321.000000) scale(0.100000,-0.100000)"
fill="#000000" stroke="none">
<path d="M1543 2936 c-59 -72 -208 -393 -227 -492 -2 -10 -11 -48 -20 -84 -32
-126 -44 -260 -41 -430 4 -187 7 -216 40 -355 50 -211 65 -246 364 -842 157
-314 239 -466 254 -474 15 -9 154 -12 505 -12 468 0 484 0 510 20 58 43 84
-15 -604 1362 -350 702 -648 1291 -661 1309 -34 46 -81 45 -120 -2z"/>
<path d="M942 1734 c-27 -19 -702 -1372 -702 -1407 0 -34 40 -77 72 -78 13 0
232 -1 488 -1 345 -1 471 2 488 11 28 15 66 99 92 200 25 103 32 149 35 266 9
336 -107 673 -322 937 -30 37 -63 70 -73 73 -41 13 -59 13 -78 -1z"/>
</g>
</svg>
